<svg xmlns="http://www.w3.org/2000/svg" viewBox="0 0 1024 1024"><g fill="#fdf3e6"><path d="M0 0h1024v1024H0V0m255 187c-.1 58.6.2 117.3-.2 176 0 30.3-.4 60.6 0 91a45.3 45.3 0 0 0 43.1 44h133c-2.4 11.6-3.5 23.5-6 35.1-13 0-26-.2-38.9 0-6.4.7-10 8.6-7.2 14.2a9.5 9.5 0 0 0 8.2 5.7h134c1.4.1 3-.3 4.2.8 4.3 3.3 9.1 6.6 14.8 6.3 23 .5 46-.1 69 0 27.7-.2 55.3 0 83-.2 7-2 13.7-5.4 20.3-8.7a112 112 0 0 0 38.6-30.3 99.3 99.3 0 0 0 20.4-54c1.5-16.6-1.7-33.3-7.2-49-3.9-11.6-9.4-22.6-11.3-34.8a22 22 0 0 1 7-22.4c4.9-4 8.9-10 8.4-16.7.8-7.2-4-13.7-9.9-17.4-5.9-4-13.4-4.2-20.2-3.2l.1-128.4c0-6.2.5-12.5-1.6-18.4a42 42 0 0 0-37.6-29.8H296c-21.5-.8-40.7 18.8-41 40.1m334.4 403.6a37.5 37.5 0 0 0-24.6 15.4c-6.4 9.3-7.8 21-7 32 0 15.1 9 30.9 23.8 35.6 7.4 3.2 15.5 2.6 23.4 2.5a35.4 35.4 0 0 0 29.5-24l-.4-.8c-5.3-2-10.8-3.4-16.2-4.8-1.9 2.4-2.8 5.4-4.7 7.8-2.7 3.6-6.8 6-11.2 6.7-6 .5-12.4.3-17.2-3.7-6.7-5.2-9.2-14-9.7-22.1a32 32 0 0 1 8.7-24.3c6.7-6.3 17.7-7 25.2-1.8a25 25 0 0 1 7.5 10.8c5.6-1.3 11.5-2.3 16.8-4.8a33 33 0 0 0-13.7-19.5c-8.8-6-20-6.3-30.2-5m-333.4.7c.1 28-.3 55.9 0 83.8h16c.2-18.6-.2-37.1 0-55.7 6.9 13.9 13.4 27.9 20.3 41.6 4 1.4 8.5.2 12.8.6 7-13.9 13-28.2 19.8-42.3.2 18.6 0 37.2.1 55.8 5.3 0 10.5.1 15.8-.1 1.3-.8.8-2.6 1-3.9-.2-26.5.2-53.1-.1-79.7-6.8-.2-13.5 0-20.2 0-7.5 16.6-15.5 33-22.9 49.7-1.5-5-4.2-9.5-6.3-14.3-6-11.7-11.2-23.9-17.5-35.5H256m106 0V675c18.6 0 37.3.2 56-.1.3-5 .2-10 0-15h-39V641l28-.1c1.5-.4 3.6.5 4.5-1 .3-4.6 0-9.3-.4-13.9-10.7-.3-21.3-.3-32-.3-.2-6.2 0-12.5 0-18.7 12.5-.2 25 .3 37.6-.2.5-4.6.3-9.2.3-13.8.4-1.9-2-1.7-3-1.7h-52m163-.3c-.5 10.3 0 20.6-.2 30.9.2 17.6-.4 35.3.2 53h14c1.4.2 3.4-.3 3-2 0-27.3.1-54.5-.1-81.7-5.7-.1-11.4 0-17-.2m145.1 0c-3.6 8.6-6.6 17.4-9.9 26.1-7 19.2-14.4 38.3-21.1 57.6 5.8.3 11.7.3 17.6.2l6-17.3h33.7c2.2 5.7 4 11.5 6 17.2 6 .2 12 .2 18 0-2-7.2-5.5-14-7.9-21.2-7.9-20.7-15.8-41.5-23.9-62.1-6-1.1-12.4-.2-18.5-.5m63 .2c-.7 9 0 17.9-.3 26.8.2 19-.5 38 .2 57 16.7-.1 33.5.1 50.2-.1.8-5 .5-10.2.3-15.3H750c-.2-22.8 0-45.6-.2-68.5-5.6 0-11.3-.1-17 .1m-298.3.2c.2 27.8-.3 55.7.2 83.6H467c9.5-.7 19.3-2.8 27-9a34 34 0 0 0 13-23c.9-10.9 1-22.6-4.8-32.3a36.9 36.9 0 0 0-24.5-17.4c-14.2-3.3-28.8-1.8-43.2-2M706 698a37.6 37.6 0 0 0-22.8 28.3 54.7 54.7 0 0 0 5.3 37c6 9.4 16.5 15.5 27.5 16.7 6.4 0 13 .6 19.2-1.7a32.3 32.3 0 0 0 21.5-22.8c-5.8-1.6-11.4-4.3-17.4-4.7a34 34 0 0 1-4.7 8.8c-7 7.9-21 7.4-27.9-.4A27.5 27.5 0 0 1 700 738c-.6-9.1 3.2-19 11-24a19 19 0 0 1 15.4-2.2c6.5 1.6 10.6 7.5 13 13.4 5.6-1 11-2.6 16.5-4.3a31.5 31.5 0 0 0-29-25.3c-7-.2-14.4-.7-21 2.4m-512-1c-.6 3.6-.4 7.3-.4 11v59c0 4-.3 8 .3 12 5.6-.1 11.3.3 16.8-.3.2-27.2 0-54.4 0-81.6-5.6-.2-11.2 0-16.8-.1m36.5.3c-.2 16.2 0 32.5-.2 48.7 0 11-.3 21.9 0 32.8 5.4.3 10.7.2 16 .1.7-1.5.7-3.2.7-4.9-.2-16.1.1-32.3-.4-48.4 13 17.2 24.6 35.4 37 53 5.5.9 11.3.1 16.9.4l.3-6c-.3-25.3 0-50.7-.3-76l-16.2.1c-.1 18.2-.3 36.3.1 54.4-12.6-18-24.8-36.3-37.4-54.5-5.5.3-11-.2-16.5.3m83.7-.3c0 5.2-.2 10.4 0 15.6 8.1 0 16.2-.4 24.2.2 0 22-.3 44-.1 66h16.8c.3-22 0-44 0-66 8.4-.8 16.8.4 25.1-.7v-15c-22-.3-44 0-66 0m79.8-.1c-.5 7 0 14-.2 21 .1 20.3-.2 40.7.2 61 18.4 0 36.7.1 55-.2.4-5 .1-10 .2-15-12.8-.4-25.6-.3-38.3 0-.3-6.2-.3-12.5-.1-18.7 10.5 0 21 .2 31.4 0 .7-4.9.5-9.8.3-14.6-10.6-.4-21.2-.1-31.8-.2 0-6-.3-12 .1-18.1 12.1.1 24.3.4 36.4 0V697c-17.7-.2-35.5 0-53.2-.1m71.2 3v78.9c5.7.1 11.3.2 17 0V750l13.8.1c5.3 9.5 9.9 19.5 15.4 28.9h18c-.3-1.6-1-3-1.8-4.4-5.2-8.9-10.2-18-15.6-26.8 7.3-3.4 13.4-10 14.8-18.1 1.1-8 .5-17-5-23.3-5.1-6.4-13.5-9-21.5-9.3-11-.2-22 0-33-.1-1.7-.2-2.4 1.6-2.1 3m80.2-2.8c-.2 1.6-.3 3.1-.3 4.8l.1 76.8c5.3.3 10.5.3 15.8.1l1-1.2c.2-10.6 0-21.2 0-31.9 10.4-.1 20.7.5 31 0 .4-5 0-9.8 0-14.6-10.3-.5-20.5 0-30.8-.2-.2-6.3-.3-12.7 0-19 11.6-.1 23.2.2 34.9 0v-14.9c-17.3-.1-34.5-.3-51.7 0m83.2 0c-9.2 24.6-18.4 49.3-27.3 74-1 2.5-2.1 5-2.3 7.8 5.7.2 11.3 0 17 0 2.5-5.4 4-11.3 6.4-16.9 10.8-.2 21.6-.2 32.4 0a165 165 0 0 0 6.4 17c5.7-.5 11.6.8 17.2-.8-10.2-27-20.2-54.1-30.5-81.1-6.5-.2-12.9-.1-19.3 0m142.5 0v81.8c18 .2 36 0 54.1.1 1.2-5 .8-10 .8-15-12.5-.8-25.2-.3-37.8-.3v-18.6c10.3 0 20.7.2 31-.1.1-4.9.3-9.7 0-14.6-10.4-.2-20.7 0-31-.1v-18c12 0 24 .4 36-.2v-15c-17.7-.1-35.4-.1-53 0M249.3 814.4a16 16 0 0 0-10 7 19 19 0 0 0 .8 20.1A16 16 0 0 0 262 845c7-4.7 8.5-14.7 5.1-22a15.7 15.7 0 0 0-17.7-8.5m112 0c-6 1-11 5.7-12.5 11.7-2.5 8.6 2.5 19.3 11.7 21 9.8 3 20.7-6 19.5-16.2 1.4-10-9-19-18.7-16.6m416.7.6c-4.4 1.1-8 6-6.5 10.5.7 3.9 4.4 6 7.9 7 2.5 1 6 1.1 7.4 3.8 1.2 3-1.8 6.3-4.9 5.7-3.3.2-5.2-3-6.9-5.3l-5.3 3.1c.3.6 1 1.6 1.2 2.2 4.3 8.1 18.6 8 22.2-.8 1.5-3.7.7-8.4-2.5-11-3.8-2.8-9-2.3-12.7-5.4v-2.5c3-4.2 8.5-2 11.7.7 1.2-1.3 2.5-2.6 3.6-4-3.7-4-10-6.2-15.2-4M210 815v32h7v-12.2c4.1.2 8.2.2 12.3.2.3-2 .3-4 .1-6H217v-8.4c4.6 0 9.2.3 13.7.1l.3-5.7c-7-.2-14 0-21 0m66.2 0c-.3 10.7 0 21.4-.2 32h7v-12l4.7.1c2.3 4 4.3 8 6.5 12l7.2-.1c-2.1-4.5-4.9-8.5-7.1-12.8 3-2.1 6.3-5 5.8-9.2.5-5.5-4.8-10-10-10h-13.9m48.3 0c.2 10.7 0 21.4.1 32h19.8c.2-2 .2-4 0-6-4.4.2-8.8.3-13.2.2.2-8.7.2-17.5.1-26.2h-6.8m59.2 0c2 6 4.4 11.8 6.6 17.6 2 4.8 3.4 9.9 5.8 14.5 2.2 0 4.4 0 6.6-.2 3.7-10.7 8.2-21.1 11.7-31.9h-7c-2.8 8-5.4 15.9-8.3 23.7l-8.4-23.7h-7m42.6 0c-3.5 10.8-7.7 21.4-11.5 32h7.1a114 114 0 0 0 2.5-7c4 0 8-.2 12 .2.8 2.3 1.6 4.6 2.6 6.9l7-.1c-3.8-10.6-8.1-21-11.5-31.9-2.7-.2-5.5-.2-8.2 0m25.7-.1v32h15c4.3-.1 8.8-3.5 8.6-8 .8-4-2-7.1-5-9 1.7-1.4 3.8-2.9 4-5.4 1.3-5-3.6-9.9-8.6-9.6h-14m33 0v32l19.3.1v-6h-12.7c.2-8.6.1-17.4.1-26l-6.7-.1m26 0v32c7.3 0 14.5.2 21.8 0l-.1-5.8c-5.1-.1-10.3.3-15.4-.1v-7.2c4.2-.4 8.5 0 12.7-.1v-5.9l-12.6-.1V821c4.8-.9 9.7-.2 14.6-.1v-6h-21m44.5 0c0 10.8-.1 21.5.1 32.2h6.6v-12.3c4.1 0 8.4.4 12.6 0v-5.7c-4.2-.3-8.4 0-12.7-.2v-8.2c4.5-.1 9.2.2 13.8 0l.1-5.7h-20.5m27.5 0v21c-.2 4.5 2.7 8.6 6.6 10.4 4.2 1.9 8.8 1.5 13 .4 4.5-1.5 7.6-6.1 7.4-10.8v-21h-6.9v20c0 1.7 0 3.6-1.4 4.8-3.3 4.2-11.9 2-11.8-3.8v-21H583m36 0v32l6.8-.1v-12l5 .2c2.1 4 4 8 6.3 11.9h7.2c-2.3-4.4-4.8-8.6-7.2-12.8 3.1-2.1 6.1-5.2 5.8-9.3.4-5.4-4.6-10-9.9-10h-14m33 0v32c5.2 0 10.5.3 15.8 0 5.7-1 9-7.4 6.9-12.6-1-2-3.1-3-5-4.2 5.4-2.6 6-11 .8-13.9-5.8-2.6-12.4-.8-18.5-1.3m40.3 0c-3.7 10.7-7.9 21.3-11.5 32h7l2.5-7H702c.9 2.3 1.7 4.5 2.4 6.9 2.4.2 4.9.2 7.3.1-4-10.6-7.7-21.4-11.6-32h-7.8m25.7 0 .3 32c6.6.2 13.2 0 19.7.1v-6c-4.3 0-8.7.2-13 .1V815h-7m27 0v32h20v-5.8h-13.2V815H745Z"/><path fill="#fff8ef" d="M278.2 177.2c4-6.2 11.3-10.4 18.7-10.2H695c7-.2 14.2 2.9 18.7 8.3 3.2 3.8 4.8 8.8 5.2 13.7l-.1 145c.3 3-2.2 5-3.6 7.2a55 55 0 0 0-10.8 25c-1.5 12.8-.7 26 4.3 38.1 6 16.6 12.7 33.1 15 50.7.3 5-.1 10.1-1.5 15a147.2 147.2 0 0 0-63.6-93c2-5.9 5.8-10.7 8.3-16.2a72.6 72.6 0 0 0 5.6-44.3c-1.7-10-5.3-19.5-9.2-28.8-1-4.8.4-9.8.6-14.6.3-9 .7-17.9-.1-26.8-1.1-7.7-2.6-15.5-5.2-22.9-2-4.8-5.7-10.3-11.6-10-9 .3-16 6.6-22.7 11.9-9.3 7-16.7 16.1-24.5 24.7a93 93 0 0 0-43.7-.3 586.5 586.5 0 0 0-21.9-22 44.8 44.8 0 0 0-23.2-12.6c-4.2-.6-8 2.5-9.7 6.2-4.5 9.5-4.6 20.3-5.2 30.7-.7 10.7 1.7 21.3 2 32 .2 3-.9 5.6-2 8.2-3.5 8.9-6 18.2-7 27.7-.2 5 0 10.1-.1 15.2-7.7 0-15.3-2.4-23-1.4-3.3.6-3.6 5-2 7.3 1.3 3.2 5.2 3 8 3.1 6.3.7 12.5 1.2 18.8 2 2.1 4 4.4 8 6.3 12-8.6 3.5-18 5.3-26.1 10 0 2.3-.8 5 1.3 6.6 1.8 2 4.8 1.4 7.1.7 7.7-2.4 15.3-5.1 23-7a54.2 54.2 0 0 0 16.6 20.5c1.9 1.6 4 3 5.4 5.2-1.7 9.5-2.8 19-2.9 28.8-19.1.4-38.3 0-57.5.2l-190-.1c0-74.7 0-149.3.3-224-.2-7.4-.5-15.4 4-21.8m75.9 42.8c-1 1.2-2.4 2.3-2.1 4-.2 14.7 0 29.3-.1 44h-44c-2.7-.4-4.3 2.6-4 5v48c-.1 2 .6 5 3 5h45v43a3.5 3.5 0 0 0 4 4c17 .2 34 .3 51 .1 2 .2 4.3-.9 4-3.1v-44c15.6-.1 31.3.1 46.9 0 .9-2 1.3-4 1.1-6-.2-15.6.3-31.3-.2-47 .2-2.6-2-5.2-4.8-5h-43v-45.8c-1.6-2.4-4.5-2.1-7-2.2h-49.8ZM452 606.6c7.7.7 15.7-.8 23 2.4 7.6 3 13.7 10.1 14.5 18.4 1.7 10.1-1 22.2-10 28-8.1 5.6-18.3 4.6-27.6 4.6.3-17.8-.1-35.6 0-53.4Zm227.3 5c2 4 3.1 8.2 4.6 12.4 2 6.2 4.5 12.3 6.4 18.6-7.2-.4-14.3 0-21.5-.2 3.4-10.3 7.2-20.5 10.5-30.8ZM482 711.3c6.3 0 12.6-.5 18.8.3 7.5.9 10.8 10.3 8.5 16.8A12.4 12.4 0 0 1 498 737h-16v-25.7Zm154.2 10.9c.8-1.8.4-4.3 2.3-5.3 3 10.3 7 20.2 10.5 30.4-7.2.2-14.4 0-21.6-.1 3-8.3 6-16.6 8.8-25Zm-385.8 98.2c5.2-1.9 10.5 2.7 11.1 7.8 1.8 6.1-2.5 14.3-9.4 13.7-10.2-1.6-11.1-18.1-1.7-21.5Zm32.6-.4c3.1.2 6.9-.8 9.3 1.7 2.7 2.5 1 7.5-2.4 8.2-2.3.2-4.6 0-6.9 0V820Zm79.4.3c1.8-.6 4-.4 5.7.6 7.7 4 7 18-1.5 20.6-2.6 1.2-5.4-.1-7.5-1.6-6.2-5.2-4.6-17 3.3-19.6Zm96.7 0c3 .5 6.7-.5 8.8 2 .6 2 .2 4.8-2.1 5.6-2.3.2-4.5 0-6.8.1l.1-7.7Zm166.7-.2c3.3.4 7.8-1 10 2.3 1 2.5.5 6-2.2 7.2-2.5.8-5.2.3-7.8.4v-10Zm32.4.6c2.7-.2 5.8-.8 8.2.8 2.1 2 1.2 5.7-1.6 6.4-2.1.3-4.3.1-6.5.1l-.1-7.3Zm-228 1.9c1.8 3.6 2.9 7.5 4 11.4h-8.1c1.6-3.7 2.7-7.6 4.1-11.4Zm266 .2c1.9 3.5 2.6 7.5 4 11.2h-8.1c1.5-3.7 2.7-7.5 4.1-11.2ZM459 833c3.4.2 7.7-1 10 2.3.7 2.6-.6 5.6-3.1 6.5-2.3.3-4.6.2-6.9.2v-9Zm199.3 0c3.2.4 7.6-1.2 9.8 2 2 2.6-.3 6.3-3.2 6.9-2.2.2-4.4 0-6.6 0V833Z"/></g><g fill="#503523"><path d="M255 187c.3-21.3 19.5-41 41-40.3h403a42 42 0 0 1 37.6 29.9c2.1 5.9 1.5 12.2 1.6 18.4v128.4c6.7-1 14.2-.8 20.1 3.2 5.9 3.7 10.7 10.2 9.9 17.4.5 6.7-3.6 12.6-8.5 16.7a22 22 0 0 0-7 22.4c2 12.2 7.5 23.2 11.4 34.8 5.5 15.7 8.7 32.4 7.2 49a99.3 99.3 0 0 1-20.4 54 112 112 0 0 1-38.6 30.3c-6.6 3.3-13.2 6.8-20.3 8.7-27.7.2-55.3 0-83 .1-23 0-46 .6-69 0-5.6.4-10.5-3-14.8-6.2-1.1-1-2.8-.7-4.2-.8H387a9.5 9.5 0 0 1-8.2-5.7c-2.9-5.6.8-13.5 7.2-14.3 13-.1 26 .1 39 .1 2.4-11.6 3.5-23.5 5.9-35.1h-133a45.5 45.5 0 0 1-43.2-44c-.3-30.4.1-60.7 0-91 .5-58.7.2-117.4.4-176m23.1-9.8c-4.4 6.4-4 14.4-3.9 21.8-.3 74.7-.3 149.3-.3 224h190c19.2 0 38.4.3 57.5-.1 0-9.7 1.2-19.3 2.9-28.8-1.3-2.2-3.5-3.6-5.4-5.2a54.2 54.2 0 0 1-16.5-20.6c-7.8 2-15.4 4.7-23 7.1-2.4.7-5.4 1.4-7.3-.7-2-1.6-1.3-4.3-1.2-6.5 8-4.8 17.5-6.6 26.1-10.1l-6.3-12c-6.3-.8-12.5-1.3-18.8-2-2.8-.2-6.7 0-8-3.1-1.6-2.4-1.3-6.8 2-7.3 7.7-1 15.3 1.5 23 1.4v-15.2c1.1-9.5 3.6-18.8 7.2-27.7 1-2.6 2.1-5.3 1.9-8.1-.3-10.8-2.7-21.4-2-32.1.6-10.3.7-21.2 5.2-30.7 1.6-3.7 5.5-6.8 9.7-6.2 9 1 16.6 6.8 23.2 12.7 7.5 7 14.8 14.4 21.9 21.9a93 93 0 0 1 43.7.3c7.8-8.6 15.2-17.7 24.5-24.7 6.7-5.3 13.8-11.6 22.7-12 5.9-.2 9.6 5.3 11.6 10.1 2.6 7.4 4 15.2 5.2 23 .8 8.8.4 17.8.1 26.7-.2 4.8-1.5 9.8-.6 14.6 4 9.3 7.5 18.9 9.3 28.8 2.7 14.9.8 30.6-5.7 44.3-2.5 5.5-6.4 10.3-8.4 16 19.4 13.2 36.7 30 47.9 50.8a149 149 0 0 1 15.8 42.3c1.4-4.8 1.8-10 1.5-15-2.3-17.5-9-34-15-50.6-5-12-5.8-25.3-4.3-38a55 55 0 0 1 10.8-25.1c1.4-2.3 3.8-4.2 3.6-7.2l.1-145c-.4-5-2-9.9-5.2-13.7A23.9 23.9 0 0 0 695 167H297c-7.5-.2-14.7 4-18.8 10.2m352.2 62.2a181.8 181.8 0 0 0-20.8 22.2c-1.5 1.6-2.8 3.6-4.8 4.5-2.4-.3-4.7-1.2-7-1.8a89.6 89.6 0 0 0-46.1 1.4c-2.6 1.2-4-1.5-5.5-3a161.3 161.3 0 0 0-16.5-18.4c-5-4.6-10.2-9.5-16.6-12.2a90.7 90.7 0 0 0-2.2 30.8 90 90 0 0 0 2.7 22.5c1.2 4.2-2.5 7.6-3.9 11.3-5.5 12.4-9.6 26.7-5.5 40 4.4 1.7 9.1 2.1 13.6 3.4 3.4.7 4.5 5.6 2 7.8-4.8.6-9.4-1-14-1.4 1.2 2.6 2 5.9 4.3 7.5 3.1-.4 6.4-2.5 9.5-.8 3 2 3.9 6 3.2 9.4a24 24 0 0 0-5 2.3c5 8.3 13.6 13.3 20 20.4 3.3 3.5 2.5 8.7 1.7 13a137.6 137.6 0 0 0-.7 57c3.9 17.4 8.5 34.8 9.3 52.7.1 5 .8 10.2-1.2 15-2 4.9-6.9 7.7-10 11.9-1.6 2-.9 4.6-.9 6.9 2.1 1.8 4.6 3.3 7.4 3.8a80 80 0 0 0 17.5 1c-.2-2.9-1-5.7-.9-8.5 1.2-7 7.8-11.6 9.9-18.2.4-21.3-.4-42.6 1.2-63.8.3-4.9 6.3-6.8 10-4.3 1.8 1 1.9 3.3 1.9 5.1V522c.4 3.6-2.8 5.8-5 7.9-2.9 2.5-6 5.7-5.5 9.8.4 2.5 1.5 6 4.6 6.3 8.1 1.4 16.4 1 24.7.7a27.3 27.3 0 0 1 .8-17c2.8-6.7 9-11 15.3-14.2-1-4-2.6-8-3.4-12-1.7-7-2-14.3-1.7-21.5a57.7 57.7 0 0 1 14.2-34c4.8-5.6 11-10.2 18.4-11.6 4-1 8 3.2 7.2 7.2-.7 1.9-2.5 2.9-4 4a45.2 45.2 0 0 0-21.1 31c-1.6 11-.3 22.8 5.4 32.6 7 1.8 14.7 2 20.9 6 4.4 2.5 3.1 11.6-2.5 11.2-8.4-2.1-17.5-4.1-25.8-.8-5.1 2-10.5 6.2-10.3 12.3.4 3 2.1 7.2 5.8 7 10.3 0 20.7-.6 31-.9h35c4.8 0 10-1.1 13.3-4.7 4-3.7 5.7-9.1 6.7-14.4 1.4-6.9 2.7-13.8 3-20.9 0-8.3.4-16.7-1-25-2.6-21.8-11.3-43-24.6-60.4-9-12.3-20.8-22-33-31-4.7-3.4-8-8.8-8.4-14.6-.5-3.3 2-5.8 3.6-8.4a65.7 65.7 0 0 0 11.5-26.4 72 72 0 0 0-6.6-43.8c-1.6-3.6-3.9-7.3-3.5-11.4 1.6-18.3 3.4-37.5-3.2-55-5.5 1.8-10 5.6-14.4 9.3m106.9 101a42.8 42.8 0 0 0-16 21 56.5 56.5 0 0 0 1 37.5c4.1 11 7.7 22.2 11.5 33.3 2.7 8 4.5 16.5 4.5 25a57.8 57.8 0 0 1-7.7 32.5c-2 3.5-6.6 5.8-6.2 10.4-.4 9-.2 18-1.4 27a72.5 72.5 0 0 0 29.6-40.4c2.3-8 4.6-16.2 4.4-24.6.7-18-4.3-35.6-11-52.1a88.1 88.1 0 0 1-8.8-35.8 37 37 0 0 1 10.7-22.2c2.6-2.9 7.1-6 5-10.5-3.6-5-11-4-15.6-1.2M274 442.1c-.1 4-.2 8 0 12a26.7 26.7 0 0 0 25.8 24L528 478c-2.3-12-5.2-23.8-6.3-36H274m174.8 60c-1.5 10.6-3.3 21-4.6 31.7l22.6-.2c17.7.5 35.4-.3 53 .2 2.5.3 3.5-2.4 5-3.9 3-4.7 7.8-8.8 8.2-14.8a70 70 0 0 0-1-16.7c-26.7-.7-53.4.1-80-.2-2.5-.6-3 2.1-3.2 3.9Z"/><path d="M531.4 306.2c7-1 14.8 5.3 13.7 12.8 0 6.8-8 12.3-14.2 9.2-5.3-2-9-7.5-8-13.2.2-4.6 4.1-8 8.5-8.8Zm62 .2c7.4-2.2 15.5 5 14.7 12.6 0 6.6-8 12.1-14.1 9-4.5-1.8-8.2-6-8-11-.3-4.7 2.9-9.3 7.4-10.6Zm-46.6 28.7c4.3-2.5 9.4-2.2 14.2-2.3 4.4.1 9.2 0 13.1 2.3 1 7-7.3 10.5-8.6 16.9 0 4.4 4 8.6 8.5 8 4 .4 5.8-3.7 8.4-5.9 1.8-.5 4.4-.7 5.5 1.1 2 3 .8 7.6-1.7 10a21.8 21.8 0 0 1-25.4 2.5c-3.8 1.3-7.6 3.2-11.8 2.7-7.4.5-16-5.2-15-13.3-.4-3.6 4.6-5.6 7-3.1 2.6 2 4.1 6.3 8 6 3.2.2 5.7-2.5 6.9-5.2 1-3.6-1.9-6.3-3.9-8.8-2.5-3.1-5.8-6.5-5.2-10.9ZM625 340c6.3 0 12.5-1.1 18.8-1 3.3 2.1 3.8 8 0 9.9-9.3.4-18.6-.3-27.9.5-2.2 0-5.2.6-6.8-1.5-2-2-1.3-5.6 1.3-6.6 4.8-1.1 9.7-1.1 14.6-1.3Zm-15 15.8c2.8-2 6 .6 8.7 1.5 6.6 3.2 14 4.9 20.3 8.9.6 3-.3 6.3-3.3 7.7-5.1.8-9.6-2.6-14.1-4.3-4.5-2.3-9.7-3.6-13.6-6.9-.6-2.4-.7-5.7 2-6.9Zm-20.6 234.7c10.1-1.3 21.4-1 30.2 5a33 33 0 0 1 13.7 19.5c-5.3 2.5-11.2 3.5-16.8 4.8A25 25 0 0 0 609 609a20.6 20.6 0 0 0-25.2 1.8 32 32 0 0 0-8.7 24.3c.5 8.1 3 17 9.7 22.1 4.8 4 11.3 4.2 17.2 3.7 4.4-.7 8.5-3.1 11.2-6.7 1.9-2.4 2.8-5.4 4.7-7.8 5.4 1.4 10.9 2.9 16.2 4.8l.4.8a35.4 35.4 0 0 1-29.5 24c-7.9.1-16 .7-23.4-2.5-14.8-4.7-23.9-20.5-23.7-35.5-.9-11 .5-22.8 7-32.1 5.8-8 14.6-14 24.5-15.4Zm-333.4.7h18.8c6.3 11.6 11.4 23.8 17.5 35.5 2 4.8 4.8 9.3 6.3 14.3 7.4-16.7 15.4-33 22.9-49.7 6.7 0 13.4-.2 20.2 0 .3 26.6-.1 53.2 0 79.7-.1 1.3.4 3.1-1 3.9-5.2.2-10.4 0-15.7 0v-55.6c-6.9 14-13 28.4-20 42.2-4.2-.4-8.7.8-12.7-.6-7-13.7-13.4-27.7-20.2-41.6-.3 18.6.1 37-.2 55.6-5.3.2-10.6 0-16 .1-.2-28 .2-55.9.1-83.8Zm106 .1h52c1 0 3.4-.1 3 1.7 0 4.6.2 9.2-.3 13.8-12.5.5-25.1 0-37.7.2 0 6.3-.1 12.5.1 18.7 10.7 0 21.3 0 32 .3.4 4.6.7 9.3.4 13.9-1 1.5-3 .6-4.5 1-9.3.2-18.6 0-28 .1v19h39c.2 5 .3 10 0 14.9-18.7.3-37.4 0-56 .1v-83.7Zm162.9-.2c5.6.2 11.3 0 17 .2.3 27.2 0 54.4 0 81.6.5 1.8-1.5 2.3-2.9 2.1h-14c-.7-17.7-.1-35.4-.3-53 .1-10.3-.3-20.6.1-30.9ZM670 591c6.1.3 12.5-.6 18.5.5 8.1 20.6 16 41.4 24 62 2.3 7.3 5.8 14 7.8 21.4h-18c-2-5.8-3.8-11.6-6-17.3h-33.7l-6 17.3c-5.9.1-11.8.1-17.6-.2 6.7-19.3 14-38.4 21.1-57.6 3.3-8.7 6.3-17.5 9.9-26.1m9.3 20.6c-3.3 10.3-7.1 20.5-10.5 30.8 7.2.1 14.3-.2 21.5.2-2-6.3-4.3-12.4-6.4-18.6-1.5-4.2-2.6-8.5-4.6-12.4Zm53.7-20.4c5.6-.2 11.3 0 17 0v68.4h33.4c.2 5.1.5 10.2-.3 15.3-16.7.2-33.5 0-50.2.1-.7-19 0-38-.2-57 .2-9-.4-17.9.2-26.8Zm-298.4.2c14.4 0 29-1.4 43.2 1.9a37 37 0 0 1 24.6 17.4c5.7 9.7 5.6 21.4 4.6 32.3a34 34 0 0 1-13 23 47.3 47.3 0 0 1-27 9h-32.2c-.5-27.9 0-55.8-.2-83.6m17.4 15.2c-.2 17.8.2 35.6-.1 53.4 9.3 0 19.5 1 27.5-4.5 9.1-6 11.8-18 10-28.1A22.7 22.7 0 0 0 475 609c-7.3-3.2-15.3-1.7-23-2.4ZM706 698c6.5-3.1 14-2.6 21-2.4a31.8 31.8 0 0 1 29 25.3c-5.5 1.7-11 3.3-16.7 4.3-2.3-6-6.4-11.8-13-13.4A19 19 0 0 0 711 714a26.8 26.8 0 0 0-11 24.1 27.5 27.5 0 0 0 6.8 21.2c6.9 7.8 20.8 8.3 27.8.4 2-2.6 3.5-5.7 4.7-8.8 6 .4 11.6 3.1 17.4 4.7a32.3 32.3 0 0 1-21.5 22.8c-6.1 2.3-12.8 1.6-19.2 1.7a37.9 37.9 0 0 1-27.5-16.6 54.7 54.7 0 0 1-5.3-37.1c2-12.6 11-23.6 22.8-28.3Zm-512.2-1c5.6 0 11.2-.1 16.8.1 0 27.2.2 54.4 0 81.6-5.5.6-11.2.1-16.8.2-.6-4-.2-8-.3-11.9v-59c0-3.7-.2-7.4.3-11Zm36.5.3c5.5-.5 11 0 16.5-.3 12.6 18.2 24.8 36.5 37.4 54.5-.4-18-.2-36.2 0-54.4l16.1-.1c.3 25.3 0 50.7.3 76 0 2 0 4-.3 6-5.6-.3-11.4.5-17-.3-12.3-17.7-23.9-36-36.9-53.1.5 16.1.2 32.3.4 48.4 0 1.7 0 3.4-.7 5-5.3 0-10.6.1-16-.2-.3-10.9 0-21.9 0-32.8.2-16.3 0-32.5.2-48.7Zm83.7-.3c22 .1 44-.2 66 .1v15c-8.3 1.1-16.7-.1-25 .7 0 22 .2 44-.1 66H338c-.2-22 0-44 0-66-8-.6-16-.2-24-.2-.3-5.2 0-10.4 0-15.6Zm79.8 0H447v15.2c-12 .4-24.3.1-36.4 0-.4 6-.1 12-.1 18.1 10.6 0 21.2-.2 31.8.2a78 78 0 0 1-.3 14.5c-10.4.3-21 .1-31.4.1-.2 6.2-.2 12.5 0 18.7 12.8-.3 25.6-.4 38.4 0 0 5 .2 10-.1 15-18.4.3-36.7.1-55 .2-.5-20.3-.1-40.7-.3-61 .1-7-.3-14 .2-21Zm71.2 3c-.3-1.4.4-3.2 2-3 11 0 22-.1 33.1.1 8 .3 16.4 2.9 21.6 9.3 5.4 6.4 6 15.3 4.9 23.3a25.4 25.4 0 0 1-14.8 18.1c5.4 8.9 10.4 18 15.7 26.8.8 1.3 1.5 2.8 1.8 4.3h-18.1c-5.5-9.3-10.1-19.3-15.4-28.8-4.6-.2-9.2 0-13.8 0v28.8c-5.7.2-11.3.1-17 0v-79m17 11.4V737h16c5-.2 9.9-3.7 11.3-8.6 2.3-6.5-1-16-8.5-16.8-6.2-.9-12.5-.3-18.7-.3Zm63.2-14.1c17.2-.4 34.4-.2 51.6-.1.3 5 .1 10 0 14.9-11.6.2-23.2-.1-34.9 0-.1 6.3 0 12.7.1 19 10.3.1 20.5-.3 30.8.2 0 4.8.4 9.7 0 14.5-10.3.6-20.6 0-31 .1 0 10.7.2 21.3 0 32l-1 1.1c-5.3.2-10.5.2-15.8 0v-77a25 25 0 0 1 .2-4.7Zm83.2-.2h19.3c10.3 27 20.3 54.2 30.5 81.2-5.6 1.6-11.5.3-17.2.8a165 165 0 0 1-6.4-17c-10.8-.2-21.6-.2-32.5 0-2.3 5.6-3.8 11.5-6.4 17l-16.9-.1c.2-2.8 1.4-5.3 2.3-7.8 9-24.7 18-49.4 27.3-74m7.8 25c-2.8 8.5-5.8 16.8-8.8 25.1 7.2 0 14.4.3 21.6 0-3.5-10-7.6-20-10.5-30.3-1.9 1-1.5 3.6-2.3 5.3ZM771 697h53v15c-12 .7-24 .2-36 .2v18c10.3.2 20.6 0 31 .2.3 4.9.1 9.7 0 14.6a801 801 0 0 1-31 .1v18.6c12.6 0 25.3-.5 37.8.2 0 5 .4 10.2-.8 15.1h-54v-82ZM249.4 814.5a15.7 15.7 0 0 1 17.7 8.4c3.4 7.4 1.8 17.4-5.1 22a16 16 0 0 1-21.8-3.3 19 19 0 0 1-.8-20.2c2.2-3.5 6-6 10-7m1 6c-9.4 3.4-8.5 20 1.7 21.5 7 .6 11.2-7.6 9.4-13.7-.6-5-6-9.7-11.1-7.8Zm111-6c9.6-2.3 20.1 6.6 18.7 16.6 1.2 10.2-9.7 19.2-19.5 16.3-9.2-1.8-14.2-12.5-11.7-21.1a16 16 0 0 1 12.5-11.8m1 5.9c-8 2.6-9.4 14.4-3.3 19.6 2 1.5 5 2.8 7.5 1.6 8.4-2.7 9.2-16.5 1.4-20.6a6.8 6.8 0 0 0-5.6-.6Zm415.7-5.3c5.3-2.2 11.5 0 15.2 4-1.1 1.4-2.4 2.7-3.6 4-3.2-2.6-8.7-5-11.7-.7v2.5c3.6 3.1 8.9 2.6 12.7 5.4 3.2 2.6 4 7.3 2.5 11-3.6 8.8-18 9-22.2.8l-1.2-2.1 5.3-3.2c1.7 2.4 3.6 5.5 7 5.3 3 .6 6-2.8 4.8-5.7-1.5-2.7-4.9-2.8-7.4-3.8-3.5-1-7.2-3.1-8-7-1.5-4.6 2.2-9.4 6.6-10.5ZM210 815c7 0 14-.2 21 0 0 2-.1 3.8-.3 5.7-4.5.2-9.1 0-13.7 0v8.3h12.4c.2 2 .2 4 0 6-4.2 0-8.3 0-12.4-.2V847h-7v-32Zm66.2 0h13.9c5.2 0 10.5 4.5 10 10 .5 4.1-2.8 7-5.8 9.2 2.2 4.3 5 8.3 7 12.8h-7.1c-2.2-3.9-4.2-8-6.5-11.9H283v12h-7c.2-10.7-.1-21.4.2-32m6.8 5v9.9l6.9-.1c3.5-.7 5-5.7 2.4-8.2-2.4-2.5-6.2-1.5-9.3-1.7Zm41.5-5.1h6.8c.1 8.7.1 17.5-.1 26.2 4.4.1 8.8 0 13.2-.1.2 2 .2 4 0 6h-19.8c-.2-10.7 0-21.4 0-32.1Zm59.2 0h7l8.4 23.7 8.2-23.7h7.1c-3.5 10.8-8 21.2-11.7 32l-6.6.1c-2.4-4.6-3.8-9.7-5.8-14.5-2.2-5.9-4.7-11.6-6.6-17.6Zm42.6 0c2.7 0 5.5-.1 8.2.1 3.4 10.8 7.7 21.3 11.4 31.9h-7c-.9-2.2-1.8-4.5-2.4-6.8-4-.4-8.1-.2-12.1-.1l-2.5 7h-7.1c3.8-10.7 8-21.3 11.5-32m4 7.5c-1.5 3.8-2.6 7.7-4.2 11.4h8.2c-1.2-3.9-2.4-7.8-4-11.4ZM452 815h14c5-.3 10 4.5 8.6 9.6-.2 2.5-2.3 4-4 5.5 3 1.8 5.8 5 5 8.9.1 4.5-4.3 7.9-8.6 8h-15v-32m7.1 5.3v7.7c2.2 0 4.4.1 6.7-.1 2.3-.8 2.7-3.5 2.1-5.6-2-2.5-5.9-1.5-8.8-2m0 12.7v9c2.2 0 4.5.1 6.8-.2 2.5-1 3.8-3.9 3-6.5-2.2-3.3-6.5-2-9.9-2.3Zm25.9-18h6.7v26.2l12.5-.1c.1 2 .2 4 .1 6H485V815Zm26 0h21v5.9c-4.9-.1-9.8-.8-14.6 0v6.9c4.2.2 8.4 0 12.6.1v5.9c-4.3 0-8.5-.3-12.7 0v7.3c5.2.4 10.3 0 15.4.1l.1 5.8c-7.3.2-14.5 0-21.8 0v-32Zm44.5 0H576l-.1 5.7c-4.6.2-9.3-.1-13.9 0l.1 8.2c4.3.1 8.5 0 12.7.2v5.7c-4.2.4-8.4 0-12.7 0 .1 4 .2 8.2 0 12.3h-6.5c-.2-10.7 0-21.4 0-32.1Zm27.5 0h7c0 7-.2 14 0 21-.2 5.8 8.4 8 11.7 3.8 1.4-1.2 1.3-3.1 1.4-4.8v-20h6.9v21c.2 4.7-3 9.3-7.3 10.8-4.3 1.1-9 1.5-13-.4-4-1.8-7-6-6.7-10.3V815Zm36 0h14c5.3 0 10.3 4.6 10 10 .2 4-2.8 7.2-5.9 9.3 2.4 4.3 5 8.4 7.2 12.7H637c-2.3-3.8-4.2-7.8-6.4-11.8l-4.9-.2v12l-6.8.1V815m6.8 5.1v9.9c2.6-.1 5.3.4 7.8-.4 2.7-1.3 3.2-4.7 2.2-7.2-2.2-3.4-6.7-2-10-2.3ZM652 815c6.1.5 12.7-1.3 18.5 1.3 5.2 3 4.6 11.3-.7 13.9 1.8 1.2 3.8 2.2 4.9 4.2 2.1 5.2-1.2 11.7-7 12.5-5.2.4-10.5.1-15.7.1v-32m6.2 5.7v7.3c2.3 0 4.4.1 6.6-.1 2.8-.7 3.8-4.5 1.6-6.4-2.4-1.6-5.5-1-8.2-.8m0 12.3c.2 3 .2 6 .1 9l6.6-.1c3-.6 5.2-4.3 3.2-7-2.2-3-6.6-1.5-9.8-1.9Zm34.1-18h7.8c4 10.6 7.5 21.4 11.6 32-2.4 0-4.9.1-7.3-.1-.7-2.4-1.5-4.6-2.4-6.9h-11.7l-2.5 7a92 92 0 0 1-7 0c3.6-10.7 7.8-21.3 11.5-32m4 7.8c-1.5 3.7-2.7 7.5-4.2 11.2h8.1c-1.4-3.7-2.1-7.7-4-11.2ZM718 815h7v26.2c4.3 0 8.7 0 13-.2v6.1l-19.7-.1a2273 2273 0 0 1-.3-32Zm27 0h6.7c.2 8.8 0 17.5.1 26.2h13.1l.1 5.8h-20v-32Z"/></g><g fill="#d77c37"><path d="M630.4 239.3c4.4-3.7 8.9-7.5 14.4-9.4 6.6 17.6 4.8 36.8 3.2 55.1-.4 4.1 2 7.8 3.5 11.4a72 72 0 0 1 6.6 43.8 65.8 65.8 0 0 1-11.5 26.4c-1.6 2.6-4.1 5.1-3.6 8.4.4 5.8 3.7 11.2 8.4 14.6 12.2 9 24 18.7 33 31 13.4 17.5 22 38.6 24.7 60.4 1.3 8.3.8 16.7.9 25-.3 7-1.6 14-3 21-1 5.2-2.7 10.6-6.7 14.3-3.4 3.6-8.5 4.7-13.2 4.7H652c-10.3.3-20.7.9-31 1-3.6.1-5.4-4-5.8-7.1-.2-6.1 5.1-10.4 10.3-12.3 8.3-3.3 17.4-1.4 25.8.8 5.6.5 6.9-8.6 2.5-11.2-6.2-4-14-4.2-21-6a51.4 51.4 0 0 1-5.3-32.7 45.2 45.2 0 0 1 21.1-31c1.5-1 3.3-2 4-3.9.8-4-3.1-8.2-7.3-7.2A33 33 0 0 0 627 448a57.7 57.7 0 0 0-14.2 34c-.3 7.2 0 14.4 1.7 21.4.8 4.2 2.4 8 3.4 12.1a30 30 0 0 0-15.3 14.1c-2.6 5.4-2 11.5-.8 17.1-8.3.3-16.6.7-24.7-.7-3-.3-4.2-3.8-4.6-6.3-.4-4 2.6-7.3 5.4-9.8 2.3-2.1 5.5-4.3 5.1-7.9v-65c0-1.9-.1-4.1-1.9-5.2-3.7-2.5-9.7-.6-10 4.3-1.6 21.2-.8 42.5-1.2 63.8-2 6.6-8.7 11.1-9.9 18.2 0 2.8.7 5.6 1 8.5a80 80 0 0 1-17.6-1c-2.8-.5-5.3-2-7.4-3.8 0-2.3-.7-5 1-6.9 3-4.2 7.9-7 10-12 2-4.7 1.2-10 1.1-14.9-.8-18-5.4-35.3-9.3-52.8-4.2-18.7-3.1-38.2.7-56.9.8-4.3 1.6-9.5-1.8-13-6.3-7-15-12-20-20.4a24 24 0 0 1 5.1-2.3c.7-3.4-.2-7.5-3.2-9.4-3-1.7-6.4.4-9.5.8-2.4-1.6-3.1-5-4.4-7.5 4.7.4 9.3 2 14 1.4 2.6-2.2 1.4-7-1.9-7.8-4.5-1.3-9.2-1.7-13.6-3.4-4.1-13.3 0-27.6 5.5-40 1.4-3.7 5-7 4-11.3-2-7.3-2.8-15-2.8-22.5-1-10.3-.3-20.7 2.2-30.8 6.4 2.7 11.5 7.6 16.6 12.2 6 5.6 11.4 12 16.5 18.4 1.5 1.5 3 4.2 5.5 3 15-4.4 30.8-4.9 46-1.3 2.4.6 4.7 1.4 7.1 1.7 2-1 3.3-3 4.8-4.5 6.3-8 13.2-15.5 20.8-22.3m-99 67c-4.4.6-8.3 4.1-8.4 8.7-1 5.7 2.6 11.2 7.9 13.2 6.3 3.1 14.2-2.4 14.2-9.2 1-7.5-6.7-13.7-13.8-12.8m62.1.2A10.6 10.6 0 0 0 586 317c-.2 5 3.5 9.2 8 11 6 3.1 14.1-2.4 14-9 1-7.6-7.2-14.8-14.6-12.6m-46.6 28.8c-.5 4.3 2.7 7.7 5.2 10.8 2 2.5 4.9 5.2 3.9 8.8-1.2 2.7-3.7 5.4-6.9 5.2-3.9.3-5.4-4-8-6-2.4-2.5-7.4-.5-7 3-1 8.2 7.6 13.9 15 13.4 4.2.5 8-1.4 11.8-2.7a21.8 21.8 0 0 0 25.4-2.5c2.5-2.4 3.8-7 1.7-10-1.1-1.8-3.7-1.6-5.5-1-2.6 2.1-4.5 6.2-8.4 5.8-4.5.6-8.5-3.6-8.5-8 1.3-6.4 9.6-9.8 8.6-16.9-4-2.4-8.7-2.2-13.1-2.3-4.8 0-9.9-.2-14.2 2.3m78.2 5c-4.9 0-9.8 0-14.6 1.2-2.6 1-3.3 4.7-1.3 6.6 1.6 2.1 4.6 1.4 6.8 1.5 9.3-.8 18.6-.1 27.9-.5 3.8-1.9 3.3-7.8 0-10-6.3 0-12.5 1.2-18.8 1.1m-15 15.8c-2.7 1.2-2.6 4.5-2 7 4 3.2 9 4.5 13.6 6.8 4.5 1.7 9 5.1 14.1 4.3 3-1.4 3.9-4.6 3.3-7.7-6.2-4-13.6-5.7-20.3-9-2.8-.8-6-3.4-8.7-1.4Zm127.3-15.6c4.6-2.9 12-3.7 15.5 1.2 2.2 4.4-2.3 7.6-4.9 10.6a37 37 0 0 0-10.7 22.1c-.2 12.5 4 24.5 8.9 35.8 7.2 16.4 11 34.2 11 52.1.1 8.4-2.2 16.6-4.5 24.6a72.5 72.5 0 0 1-29.6 40.5c1.2-9 1-18 1.4-27.1-.4-4.6 4.2-6.9 6.2-10.4 6-9.7 8-21.3 7.6-32.6 0-8.4-1.7-16.9-4.4-24.9-3.8-11-7.4-22.3-11.5-33.3-4.6-12-5-25.3-1-37.6 3-8.5 8.6-15.9 16-21Z"/><path d="M274 442h247.8c1 12.2 4 24 6.3 36H300c-13 .2-24.9-11-25.8-24-.2-4-.1-8 0-12Z"/><path fill="#d75437" d="M354.2 220H404c2.4 0 5.3-.2 6.8 2.2.2 15.2 0 30.5.2 45.8h43c2.6-.2 4.9 2.4 4.7 5 .5 15.7 0 31.4.2 47 .2 2-.3 4-1.1 6-15.6.1-31.3-.1-46.9 0v44c.3 2.3-2 3.3-4 3.1h-51c-2.2.3-4.4-1.8-4-4v-43c-15-.2-30 0-45-.1-2.4 0-3.1-3-3-5v-48c-.3-2.4 1.3-5.4 4-5h44v-44c-.2-1.7 1.2-2.8 2.2-4h.1Z"/></g><path fill="#764628" d="M448.8 501.9c.3-1.8.7-4.5 3.1-3.9 26.7.3 53.4-.5 80 .2a70 70 0 0 1 1 16.7c-.3 6-5.1 10.1-8.2 14.8-1.4 1.5-2.4 4.2-4.8 4-17.7-.6-35.4.2-53.1-.3l-22.6.2c1.3-10.6 3.1-21.1 4.6-31.7Z"/><path fill="rgba(253,243,230,.79)" d="M193.5 804.7h121.7v55H193.5z"/></svg>